<svg id="logo_piramid" data-name="Layer 1" xmlns="http://www.w3.org/2000/svg" viewBox="0 0 152.59 67.41">
  <path
    fill="white"
    class="cls-1"
    d="M173,72.15c0.68-1.5.13-1.12-.19-2.55,0.07,0.33-1,1.07-.91,1.58a2.89,2.89,0,0,0,.21.7,4.26,4.26,0,0,1,.15.58v0.1a3,3,0,0,1-2.8-.49c-1-.92,0-2.56.43-3.5a5,5,0,0,0,.6-2.88s-0.49.66-.53,0.74a1.8,1.8,0,0,0-.38.84c0.28,1.63-.92,3.11-1.35,4.62s0.79,2.36,2.2,2.36S172.52,73.29,173,72.15Z"
    transform="translate(-24.26 -65.71)"></path>
  <path
    fill="white"
    class="cls-1"
    d="M175.94,108.88a7.79,7.79,0,0,1-.27,1.32l-0.11.1a0.88,0.88,0,0,1-.6.17c-0.87,0-1.66-2-1.86-2.6a0.19,0.19,0,0,1,0,.1l-0.15.26a8.8,8.8,0,0,0-.73,1.18,6.3,6.3,0,0,0,.19,1.07,0.87,0.87,0,0,1-.28.1,0.85,0.85,0,0,1-.63-0.19,3.56,3.56,0,0,1-1.06-2.33s-0.49.67-.53,0.74a1.79,1.79,0,0,0-.38.84c0.18,0.92.85,3.27,2.2,2.26a3.8,3.8,0,0,0,1-1.37c0.46,1,1.35,2.21,2.35,1a8.42,8.42,0,0,0,.87-1.31,5,5,0,0,0,.2-1.16,4,4,0,0,1,.7-1.71A9.87,9.87,0,0,0,175.94,108.88Z"
    transform="translate(-24.26 -65.71)"></path>
  <path
    fill="white"
    class="cls-1"
    d="M172.9,97.71a3.19,3.19,0,0,0,1.53-2,1.76,1.76,0,0,0-1.5-2.33c-0.9,0-1.46.92-1.87,1.57a9.9,9.9,0,0,0-1.18,2.85,6.66,6.66,0,0,0-.32,2.77c0.41,2,3.63.5,4.5-.26a12.86,12.86,0,0,0,.84-1.55,4.36,4.36,0,0,1-3.45,1.14c-1.11-.2-1.09-1.28-0.93-2.22A5.15,5.15,0,0,0,172.9,97.71Zm0.73-1.24c0,0.31-.19.3,0,0h0Zm-2.41-1.21a1.41,1.41,0,0,1,2,.39,2.42,2.42,0,0,1,.28.48l0,0.09a4.62,4.62,0,0,1-.53.05,8,8,0,0,1-2-.23,0.26,0.26,0,0,0-.21.14A1.77,1.77,0,0,1,171.21,95.26Z"
    transform="translate(-24.26 -65.71)"></path>
  <path
    fill="white"
    class="cls-1"
    d="M103,113.76c-3-1.89-6.16-4.24-6.86-7.94-0.57-3,.68-6,1.59-8.76a7.34,7.34,0,0,0-1.6-7.45c-1.92-1.78-4.69-.7-6.49.65a14.6,14.6,0,0,0-3.32,4A28,28,0,0,0,84,98.45a5.82,5.82,0,0,1-2.36,1.8c-1.44.58-3.87,0.62-4.32-1.23a4.86,4.86,0,0,1,.24-2.25,13,13,0,0,1,.93-2.36,33.37,33.37,0,0,0,2.15-5l0-.16c-4.92.34-9.83,0.89-14.78,0.82-0.7,0-1.87,2.51-2.14,3a30.49,30.49,0,0,0-1.51,3.34c1.4,0,2.8,0,4.2-.07a6.18,6.18,0,0,0-.26,1.38c0,0.45,0,.92-0.05,1.4-3,.1-6.07.26-9-0.53a5.71,5.71,0,0,1-3.57-2.51c-1-1.75-.6-4-0.09-5.84,0.12-.46-0.41.16-0.43,0.18a15.59,15.59,0,0,0-1.23,1.8,16.27,16.27,0,0,0-2,4,14.6,14.6,0,0,0-.47,2.42h0a12.15,12.15,0,0,1-2,.27c-1.82.16-3.63,0.36-5.46,0.46H41.67a33,33,0,0,0,2.25-4.09A7.81,7.81,0,0,0,44.67,93a3.05,3.05,0,0,0-1.78-3.34A10.58,10.58,0,0,0,37.78,89a13.84,13.84,0,0,0-4.49.87h0c0-.84,0-1.68,0-2.52,0-.41-0.37.11-0.43,0.18a15.55,15.55,0,0,0-1.24,1.8c-0.49.8-1,1.62-1.37,2.45a4.7,4.7,0,0,0-.65,1.56c-0.05,2.08,0,4.17,0,6.25a0.93,0.93,0,0,0-.55.36l-1.14.12a1.91,1.91,0,0,0-.76.8c-0.5.7-1,1.44-1.38,2.18s-0.84,1.5-1.2,2.29a3.61,3.61,0,0,0-.31,1.12A39.55,39.55,0,0,1,28.7,106h1.06c0,1,0,1.84,0,2.79,0,3,0,6-.1,9-0.08,5.07-.17,10.13-0.28,15.2,0,0.41.37-.12,0.43-0.19A15.58,15.58,0,0,0,31.07,131c0.49-.8,1-1.62,1.37-2.45a4.68,4.68,0,0,0,.65-1.56q0.16-7.61.28-15.21c0-2,.06-3.93.08-5.89,2.35,0,4.7-.11,7-0.29a31.6,31.6,0,0,0,5.45-.65c1.66-.44,2.74-2,3.6-3.52a5.7,5.7,0,0,0,.23.65,5.27,5.27,0,0,0,3.34,2.73c3.48,1.2,7.47.65,11.07,0.61,0.72,0,1.86-2.49,2.14-3l0,0q0,5.44,0,10.89c0,0.4.36-.1,0.43-0.18a15.54,15.54,0,0,0,1.24-1.8c0.49-.8,1-1.62,1.37-2.45a4.58,4.58,0,0,0,.65-1.56q0-5.57,0-11.14l0.32,0,3.81-.3,1.9-.15c0.5,0,1-.61.88-0.14l-0.16.38-0.33.71c-0.29.61-.58,1.21-0.86,1.82A28.6,28.6,0,0,0,74,102.56c-0.62,2.16-.45,4.35,2.27,4.33a5.92,5.92,0,0,0,4.34-2.15A42.41,42.41,0,0,0,83.32,101a4.16,4.16,0,0,0,4.36,4.29c2.83,0,4.86-1.56,6.37-3.79l0.38-.58a10.92,10.92,0,0,1-.85,3.26,15.48,15.48,0,0,0-1,8.41,9.37,9.37,0,0,0,2.6,4.29,22.64,22.64,0,0,0,4.63,3.45c1.9,1.19,3.85,2.29,5.82,3.35,0.85,0.46,1.7.91,2.56,1.35,0.59,0.3,4-6.12,3.65-6.32C108.82,117.22,105.85,115.57,103,113.76ZM34.89,99.09c-0.48.1-1,.18-1.45,0.26,0-1.36-.06-2.73-0.09-4.09a15.41,15.41,0,0,1,4.62.25,4,4,0,0,1,2.79,1.79A23.13,23.13,0,0,1,34.89,99.09Zm58.42-.38a6.66,6.66,0,0,1-3.6.09,3.78,3.78,0,0,1-2.43-2.34,2.85,2.85,0,0,1-.18-0.58c1.86-1.11,4.14-1.28,5.77.44A5.35,5.35,0,0,1,94,98.46C93.8,98.56,93.56,98.64,93.31,98.72Z"
    transform="translate(-24.26 -65.71)"></path>
  <path fill="white" class="cls-1" d="M51.77,88.12c0.41,0.25,4.18-6,3.65-6.32-2-1.26-3.93-2.7-5.84-4.13-0.29-.22-2,2.79-2.14,3S45.55,83.69,45.94,84C47.84,85.42,49.74,86.86,51.77,88.12Z" transform="translate(-24.26 -65.71)"></path>
  <path
    fill="white"
    class="cls-1"
    d="M128.2,88.08c0.25,0.15,1.61-1.9,2.61-3.7,1.71,1.15,3.16,2.63,4.93,3.7,0.43,0.26,4.16-6,3.65-6.32-1.79-1.08-3.26-2.58-5-3.74-0.19-.13-1.59,1.9-2.62,3.7-1.76-1.08-3.21-2.55-4.92-3.7-0.33-.22-4.23,5.93-3.65,6.32C124.94,85.5,126.41,87,128.2,88.08Z"
    transform="translate(-24.26 -65.71)"></path>
  <path
    fill="white"
    class="cls-1"
    d="M163.74,73.86c0-1.84-.09-3.68-0.16-5.52,0-.39-0.34.08-0.43,0.18a15.55,15.55,0,0,0-1.24,1.8c-0.49.8-1,1.62-1.37,2.45a4.44,4.44,0,0,0-.65,1.56c0.19,5,.36,10,0.49,15a7.34,7.34,0,0,0-7.3.62,10.82,10.82,0,0,0-2.47,3.11A20.78,20.78,0,0,0,148.16,98l0,0.13a14,14,0,0,1-2.3.29,25.87,25.87,0,0,1-5.5-.62c-3.43-.61-7.41-3.62-7.24-7.45,0-.42-0.38.12-0.43,0.18a15.55,15.55,0,0,0-1.24,1.8c-0.49.8-1,1.62-1.37,2.45a4.81,4.81,0,0,0-.65,1.56,6,6,0,0,0,.25,2A14.65,14.65,0,0,1,124,96.54c-2.85-1.61-7-5.66-10.39-3.13a4,4,0,0,0-.87,1,10,10,0,0,0-4.1-3.38c-1.82-.73-4,0.22-5.23,1.56a21.94,21.94,0,0,0-3,4.63,12.85,12.85,0,0,0-1.64,4.25c-0.62,4.44,3.85,8.12,7.18,10.2,2.49,1.56,5,3,7.59,4.48,0.49,0.28,4.12-6.05,3.65-6.32q-3.06-1.75-6.08-3.55c-3.21-1.93-6.35-4.09-8-7.56a6.23,6.23,0,0,1-.51-1.47,4.83,4.83,0,0,1,3.7.74c2.76,1.75,4.09,4.82,6.27,7.1a35.83,35.83,0,0,0,3.3-5.13c1.79,1,3.5,2.33,4.8,3.07,3.24,1.83,8.45,2.63,11.51.06a4.82,4.82,0,0,0,.62-0.64,9.3,9.3,0,0,0,3.64,1.64,27.92,27.92,0,0,0,5.85.69A16.45,16.45,0,0,0,148.6,103a1.22,1.22,0,0,0,.4-0.37,5.7,5.7,0,0,0,.78,1c1.45,1.41,3.82,1.14,5.66,1.1a4.5,4.5,0,0,0,2.52-1,8.56,8.56,0,0,0,1.85-1.88c0.27-.35.53-0.72,0.78-1.09q0,4.25,0,8.49c0,0.54,0,1.09,0,1.63,0,0,0,.11,0,0.17a1.2,1.2,0,0,0-.15.71c0.09,0.33.37-.06,0.49-0.2a16.94,16.94,0,0,0,3.29-5.87,7.16,7.16,0,0,0,.11-1.63c0.07-2.75,0-5.5,0-8.24C164.12,88.48,163.93,81.17,163.74,73.86Zm-6.12,24.59a6,6,0,0,1-4.19-1.13A5.06,5.06,0,0,1,152,95.14a7.16,7.16,0,0,1,6.54,1.79,9.34,9.34,0,0,1,.92,1.48A12.76,12.76,0,0,1,157.61,98.45Z"
    transform="translate(-24.26 -65.71)"></path>
  <path
    fill="white"
    class="cls-1"
    d="M170.3,82.4a8.79,8.79,0,0,1,1.81.25,4.43,4.43,0,0,0-.53,1.23c-0.23.94,0.7,1.53,1.34,2a4.12,4.12,0,0,0,.91-1.58,5.38,5.38,0,0,1-1.12-.94,0.93,0.93,0,0,1-.19-0.39,2.34,2.34,0,0,1,.64-0.1,5.21,5.21,0,0,0,.81.07c0.27,0,.66-1.06.83-1.44l0.08-.14a3.74,3.74,0,0,0-.76-0.06c-1.28-.19-2.72-0.73-3.89-0.32a2.89,2.89,0,0,0-.92,1.54c0.06,1.92.13,3.84,0.13,5.76,0-.23.92-1,0.92-1.5C170.38,85.31,170.34,83.85,170.3,82.4Zm2,0.66c-0.2.25-.4,0.19,0,0h0Z"
    transform="translate(-24.26 -65.71)"></path>
</svg>
